<svg aria-hidden="true" style="width:0;height:0;position:absolute;overflow:hidden" xmlns="http://www.w3.org/2000/svg"><defs><symbol id="icon-modal_close" viewBox="0 0 32 32"><path stroke-linejoin="round" stroke-linecap="round" stroke-width="1.733" d="M24 8 8 24M8 8l16 16"/></symbol><symbol id="icon-instagram" viewBox="0 0 31 32"><path fill="#fff" style="fill:var(--color1,#fff)" opacity=".8" d="M27.727 10.731a8.935 8.935 0 0 0-.575-3.037 6.322 6.322 0 0 0-3.614-3.608 9.092 9.092 0 0 0-3-.576c-1.32-.059-1.739-.075-5.091-.075s-3.781 0-5.092.075a9.066 9.066 0 0 0-2.999.576 6.317 6.317 0 0 0-3.614 3.608 8.96 8.96 0 0 0-.575 2.994c-.059 1.32-.077 1.738-.077 5.084s0 3.774.077 5.084a9.037 9.037 0 0 0 .575 2.997 6.328 6.328 0 0 0 3.615 3.607c.955.373 1.97.584 2.999.617 1.322.059 1.74.077 5.092.077s3.781 0 5.092-.077a9.074 9.074 0 0 0 3-.574 6.334 6.334 0 0 0 3.614-3.608 9.023 9.023 0 0 0 .575-2.997c.059-1.318.077-1.736.077-5.084-.003-3.346-.003-3.771-.08-5.082zm-12.288 11.37c-3.506 0-6.345-2.835-6.345-6.335s2.84-6.335 6.345-6.335c3.503 0 6.346 2.835 6.346 6.335s-2.843 6.335-6.346 6.335zm6.598-11.427a1.477 1.477 0 1 1 0-2.954 1.476 1.476 0 1 1 0 2.954z"/><path fill="#fff" style="fill:var(--color1,#fff)" opacity=".8" d="M15.441 19.634a3.866 3.866 0 1 0 0-7.732 3.866 3.866 0 0 0 0 7.732z"/></symbol><symbol id="icon-youtube" viewBox="0 0 31 32"><path fill="#fff" style="fill:var(--color1,#fff)" opacity=".8" d="M23.404 6.139c-1.313-.077-4.017-.154-8.11-.154h-.541c-3.939 0-6.565.077-7.879.232-1.777.154-3.012.618-3.708 1.236-.618.541-1.081 1.545-1.236 2.858-.077.85-.155 2.626-.155 5.33v.386c0 2.549.077 4.326.232 5.175.232 1.236.618 2.163 1.39 2.703.772.618 2.085 1.004 3.939 1.159 1.313.077 4.017.154 8.11.154h.541c3.939 0 6.566-.077 7.879-.232 1.777-.154 3.012-.618 3.708-1.236.618-.541 1.081-1.545 1.236-2.858.077-.85.154-2.626.154-5.33v-.386c0-2.549-.077-4.325-.232-5.175-.232-1.236-.618-2.163-1.39-2.703-.772-.618-2.086-1.004-3.939-1.159zm-3.012 9.501-8.497 5.098V10.542l8.497 5.098z"/></symbol><symbol id="icon-facebook" viewBox="0 0 31 32"><path fill="#fff" style="fill:var(--color1,#fff)" opacity=".8" d="M18.847 4.827h.927v3.476h-1.159c-.464 0-.927 0-1.159.232-.232.232-.232.463-.232 1.004v1.236h2.549v2.935h-2.549v12.745h-3.939V13.633h-2.086v-2.935h2.086V9.694c0-1.699.232-2.935.695-3.476.695-1.004 2.086-1.468 4.171-1.468.232.077.463.077.695.077z"/></symbol><symbol id="icon-sale_less-details" viewBox="0 0 256 32"><path stroke-width="16" d="M0 16h256"/></symbol><symbol id="icon-catalogue_favorite" viewBox="0 0 32 32"><path stroke-linejoin="round" stroke-linecap="round" stroke-width="2.667" d="M27.787 6.147a7.326 7.326 0 0 0-10.373 0L16.001 7.56l-1.413-1.413a7.333 7.333 0 0 0-10.374 0 7.333 7.333 0 0 0 0 10.374l11.787 11.787 11.787-11.787a7.326 7.326 0 0 0 0-10.373z"/></symbol><symbol id="icon-carousel_page-numbering" viewBox="0 0 146 32"><path fill="#fff" style="fill:var(--color1,#fff)" d="M6.981 23.36c-1.004 0-1.863-.241-2.576-.722-.705-.489-1.282-1.161-1.73-2.016-.44-.863-.763-1.863-.971-2.999-.199-1.137-.299-2.352-.299-3.646s.1-2.51.299-3.646c.207-1.145.531-2.149.971-3.012.448-.871 1.025-1.551 1.73-2.041.713-.498 1.572-.747 2.576-.747s1.858.249 2.564.747c.713.489 1.29 1.17 1.73 2.041.44.863.763 1.867.971 3.012.207 1.137.311 2.352.311 3.646s-.104 2.51-.311 3.646c-.207 1.137-.531 2.136-.971 2.999-.44.855-1.016 1.527-1.73 2.016-.705.481-1.56.722-2.564.722zm0-1.867c.78 0 1.419-.286 1.916-.859.506-.572.884-1.419 1.132-2.539s.373-2.493.373-4.119c0-1.634-.124-3.012-.373-4.132s-.626-1.966-1.132-2.539c-.498-.581-1.137-.871-1.916-.871-.772 0-1.415.29-1.929.871-.506.572-.884 1.419-1.132 2.539s-.373 2.497-.373 4.132c0 1.634.124 3.012.373 4.132.249 1.112.626 1.954 1.132 2.526a2.486 2.486 0 0 0 1.929.859zm13.847-16.8v18.418h-2.116V6.995c-.066.091-.274.212-.622.361-.34.149-.763.295-1.269.436-.498.133-1.029.228-1.593.286V6.162a9.796 9.796 0 0 0 1.568-.386 7.753 7.753 0 0 0 1.269-.535c.348-.199.581-.382.697-.548h2.066z"/><path fill="none" stroke="#fff" style="stroke:var(--color1,#fff)" stroke-width="1.778" d="M35.556 16h71.111"/><path fill="#fff" style="fill:var(--color1,#fff)" d="M124.315 23.36c-1.004 0-1.863-.241-2.576-.722-.705-.489-1.282-1.161-1.73-2.016-.44-.863-.763-1.863-.971-2.999-.199-1.137-.299-2.352-.299-3.646s.1-2.51.299-3.646c.207-1.145.531-2.149.971-3.012.448-.871 1.025-1.551 1.73-2.041.713-.498 1.572-.747 2.576-.747s1.858.249 2.564.747c.713.489 1.29 1.17 1.73 2.041.44.863.763 1.867.971 3.012.207 1.137.311 2.352.311 3.646s-.104 2.51-.311 3.646c-.207 1.137-.531 2.136-.971 2.999-.44.855-1.016 1.527-1.73 2.016-.705.481-1.56.722-2.564.722zm0-1.867c.78 0 1.419-.286 1.916-.859.506-.572.884-1.419 1.132-2.539s.373-2.493.373-4.119c0-1.634-.124-3.012-.373-4.132s-.626-1.966-1.132-2.539c-.498-.581-1.137-.871-1.916-.871-.772 0-1.415.29-1.929.871-.506.572-.884 1.419-1.132 2.539s-.373 2.497-.373 4.132c0 1.634.124 3.012.373 4.132.249 1.112.626 1.954 1.132 2.526a2.486 2.486 0 0 0 1.929.859zM142.841 6.61h-7.168l-.647 6.048c.025-.1.108-.232.249-.398a2.96 2.96 0 0 1 .647-.51c.291-.174.651-.319 1.083-.436s.938-.174 1.518-.174c1.51 0 2.655.539 3.435 1.618.788 1.079 1.182 2.501 1.182 4.268 0 1.361-.212 2.514-.635 3.46-.415.946-1.016 1.663-1.804 2.153-.788.481-1.742.722-2.862.722-.904 0-1.692-.133-2.364-.398a4.37 4.37 0 0 1-1.643-1.145 4.973 4.973 0 0 1-.958-1.717 7.116 7.116 0 0 1-.311-2.153V17.911h2.103V17.948c.008 1.253.291 2.157.846 2.713.564.556 1.348.834 2.352.834.647 0 1.203-.162 1.668-.485.473-.324.834-.813 1.083-1.468.257-.655.386-1.481.386-2.476 0-1.327-.245-2.335-.734-3.024-.481-.689-1.19-1.033-2.128-1.033-.606 0-1.137.12-1.593.361a3.738 3.738 0 0 0-1.132.859c-.29.34-.498.664-.622.971l-2.041-.523 1.132-9.918h8.96v1.854z"/></symbol><symbol id="icon-carousel_right-arrow" viewBox="0 0 32 32"><path fill="none" stroke="#fff" style="stroke:var(--color1,#fff)" stroke-linejoin="round" stroke-linecap="round" stroke-width="1.333" d="m12 24 8-8-8-8"/></symbol><symbol id="icon-carousel_left-arrow" viewBox="0 0 32 32"><path fill="none" stroke="#fff" style="stroke:var(--color1,#fff)" stroke-linejoin="round" stroke-linecap="round" stroke-width="1.333" d="m20 24-8-8 8-8"/></symbol><symbol id="icon-burger_menu-close" viewBox="0 0 32 32"><path fill="none" stroke="#fff" style="stroke:var(--color1,#fff)" stroke-linejoin="round" stroke-linecap="round" stroke-width="1.733" d="M24 8 8 24M8 8l16 16"/></symbol><symbol id="icon-burger_menu-open" viewBox="0 0 32 32"><path fill="#fff" style="fill:var(--color1,#fff)" d="M2.667 7.993c0-.733.595-1.327 1.327-1.327h10.68a1.326 1.326 0 0 1 0 2.654H3.994a1.326 1.326 0 0 1-1.327-1.327zm0 8.007c0-.733.595-1.327 1.327-1.327h24.013a1.326 1.326 0 0 1 0 2.654H3.994A1.326 1.326 0 0 1 2.667 16zm1.326 6.68a1.326 1.326 0 0 0 0 2.654h16.013a1.326 1.326 0 0 0 0-2.654H3.993z"/></symbol><symbol id="icon-logo" viewBox="0 0 32 32"><path d="M28.129 18.563 21.381 3.106l-1.471-1.02-1.725-.549-2.334-.628-2.74 1.177-1.826 1.02 6.9 15.457h9.944zM3.913 13.395l6.748 15.493 1.471 1.022 1.725.551 2.334.629 2.74-1.18 1.826-1.022-6.9-15.493H3.913z"/><path d="M10.924 3.309.448 18.451l10.476.112 7.573-15.255c.532-1.561 2.195-.65 2.96 0-3.271-5.993-8.385-2.497-10.533 0zM21.076 28.691l10.476-15.142-10.476-.112-7.573 15.255c-.532 1.561-2.195.65-2.961 0 3.271 5.993 8.385 2.497 10.533 0z"/></symbol></defs></svg>