<svg aria-hidden="true" style="position: absolute; width: 0; height: 0; overflow: hidden;" version="1.1"
  xmlns="http://www.w3.org/2000/svg" xmlns:xlink="http://www.w3.org/1999/xlink">
  <defs>
    <symbol id="icon-modal_close" viewBox="0 0 32 32">
      <path stroke-linejoin="round" stroke-linecap="round" stroke-miterlimit="4" stroke-width="1.7333" d="M24 8l-16 16">
      </path>
      <path stroke-linejoin="round" stroke-linecap="round" stroke-miterlimit="4" stroke-width="1.7333" d="M8 8l16 16">
      </path>
    </symbol>
    <symbol id="icon-modal-close_btn" viewBox="0 0 32 32">
      <path
        d="M32 3.223l-3.223-3.223-12.777 12.777-12.777-12.777-3.223 3.223 12.777 12.777-12.777 12.777 3.223 3.223 12.777-12.777 12.777 12.777 3.223-3.223-12.777-12.777 12.777-12.777z">
      </path>
    </symbol>
    <symbol id="icon-instagram" viewBox="0 0 31 32">
      <path fill="#fff" style="fill: var(--color1, #fff)" opacity="0.8"
        d="M27.727 10.731c-0.015-1.037-0.207-2.066-0.575-3.037-0.644-1.657-1.955-2.967-3.614-3.608-0.959-0.36-1.974-0.554-3-0.576-1.32-0.059-1.739-0.075-5.091-0.075s-3.781 0-5.092 0.075c-1.025 0.022-2.040 0.215-2.999 0.576-1.659 0.641-2.972 1.951-3.614 3.608-0.361 0.958-0.556 1.97-0.575 2.994-0.059 1.32-0.077 1.738-0.077 5.084s0 3.774 0.077 5.084c0.021 1.025 0.214 2.036 0.575 2.997 0.644 1.655 1.955 2.965 3.615 3.607 0.955 0.373 1.97 0.584 2.999 0.617 1.322 0.059 1.74 0.077 5.092 0.077s3.781 0 5.092-0.077c1.025-0.021 2.040-0.214 3-0.574 1.659-0.643 2.97-1.953 3.614-3.608 0.361-0.959 0.554-1.971 0.575-2.997 0.059-1.318 0.077-1.736 0.077-5.084-0.003-3.346-0.003-3.771-0.080-5.082zM15.439 22.101c-3.506 0-6.345-2.835-6.345-6.335s2.84-6.335 6.345-6.335c3.503 0 6.346 2.835 6.346 6.335s-2.843 6.335-6.346 6.335zM22.037 10.674c-0.819 0-1.48-0.66-1.48-1.477s0.66-1.477 1.48-1.477c0.817 0 1.478 0.66 1.478 1.477s-0.662 1.477-1.478 1.477z">
      </path>
      <path fill="#fff" style="fill: var(--color1, #fff)" opacity="0.8"
        d="M15.441 19.634c2.135 0 3.866-1.731 3.866-3.866s-1.731-3.866-3.866-3.866-3.866 1.731-3.866 3.866c0 2.135 1.731 3.866 3.866 3.866z">
      </path>
    </symbol>
    <symbol id="icon-youtube" viewBox="0 0 31 32">
      <path fill="#fff" style="fill: var(--color1, #fff)" opacity="0.8"
        d="M23.404 6.139c-1.313-0.077-4.017-0.154-8.11-0.154h-0.541c-3.939 0-6.565 0.077-7.879 0.232-1.777 0.154-3.012 0.618-3.708 1.236-0.618 0.541-1.081 1.545-1.236 2.858-0.077 0.85-0.155 2.626-0.155 5.33v0.386c0 2.549 0.077 4.326 0.232 5.175 0.232 1.236 0.618 2.163 1.39 2.703 0.772 0.618 2.085 1.004 3.939 1.159 1.313 0.077 4.017 0.154 8.11 0.154h0.541c3.939 0 6.566-0.077 7.879-0.232 1.777-0.154 3.012-0.618 3.708-1.236 0.618-0.541 1.081-1.545 1.236-2.858 0.077-0.85 0.154-2.626 0.154-5.33v-0.386c0-2.549-0.077-4.325-0.232-5.175-0.232-1.236-0.618-2.163-1.39-2.703-0.772-0.618-2.086-1.004-3.939-1.159zM20.392 15.64l-8.497 5.098v-10.196l8.497 5.098z">
      </path>
    </symbol>
    <symbol id="icon-facebook" viewBox="0 0 31 32">
      <path fill="#fff" style="fill: var(--color1, #fff)" opacity="0.8"
        d="M18.847 4.827c0.232 0 0.463 0 0.927 0v3.476c-0.232 0-0.695 0-1.159 0s-0.927 0-1.159 0.232c-0.232 0.232-0.232 0.463-0.232 1.004 0 0.463 0 0.772 0 1.236h2.549v2.935h-2.549v12.745h-3.939v-12.822h-2.086v-2.935h2.086v-1.004c0-1.699 0.232-2.935 0.695-3.476 0.695-1.004 2.086-1.468 4.171-1.468 0.232 0.077 0.463 0.077 0.695 0.077z">
      </path>
    </symbol>
    <symbol id="icon-sale_less-details" viewBox="0 0 256 32">
      <path stroke-linejoin="miter" stroke-linecap="butt" stroke-miterlimit="4" stroke-width="16" d="M0 16h256"></path>
    </symbol>
    <symbol id="icon-catalogue_favorite" viewBox="0 0 32 32">
      <path stroke-linejoin="round" stroke-linecap="round" stroke-miterlimit="4" stroke-width="2.6667"
        d="M27.787 6.147c-0.681-0.681-1.49-1.222-2.379-1.591s-1.844-0.559-2.807-0.559-1.917 0.19-2.807 0.559c-0.89 0.369-1.699 0.909-2.38 1.591l-1.413 1.413-1.413-1.413c-1.376-1.376-3.241-2.148-5.187-2.148s-3.811 0.773-5.187 2.148c-1.376 1.376-2.148 3.241-2.148 5.187s0.773 3.811 2.148 5.187l11.787 11.787 11.787-11.787c0.681-0.681 1.222-1.49 1.591-2.379s0.559-1.844 0.559-2.807-0.19-1.917-0.559-2.807c-0.369-0.89-0.909-1.699-1.591-2.38v0z">
      </path>
    </symbol>
    <symbol id="icon-carousel_page-numbering" viewBox="0 0 146 32">
      <path fill="#fff" style="fill: var(--color1, #fff)"
        d="M6.981 23.36c-1.004 0-1.863-0.241-2.576-0.722-0.705-0.489-1.282-1.161-1.73-2.016-0.44-0.863-0.763-1.863-0.971-2.999-0.199-1.137-0.299-2.352-0.299-3.646s0.1-2.51 0.299-3.646c0.207-1.145 0.531-2.149 0.971-3.012 0.448-0.871 1.025-1.551 1.73-2.041 0.713-0.498 1.572-0.747 2.576-0.747s1.858 0.249 2.564 0.747c0.713 0.489 1.29 1.17 1.73 2.041 0.44 0.863 0.763 1.867 0.971 3.012 0.207 1.137 0.311 2.352 0.311 3.646s-0.104 2.51-0.311 3.646c-0.207 1.137-0.531 2.136-0.971 2.999-0.44 0.855-1.016 1.527-1.73 2.016-0.705 0.481-1.56 0.722-2.564 0.722zM6.981 21.493c0.78 0 1.419-0.286 1.916-0.859 0.506-0.572 0.884-1.419 1.132-2.539s0.373-2.493 0.373-4.119c0-1.634-0.124-3.012-0.373-4.132s-0.626-1.966-1.132-2.539c-0.498-0.581-1.137-0.871-1.916-0.871-0.772 0-1.415 0.29-1.929 0.871-0.506 0.572-0.884 1.419-1.132 2.539s-0.373 2.497-0.373 4.132c0 1.634 0.124 3.012 0.373 4.132 0.249 1.112 0.626 1.954 1.132 2.526 0.514 0.572 1.157 0.859 1.929 0.859zM20.828 4.693v18.418h-2.116v-16.116c-0.066 0.091-0.274 0.212-0.622 0.361-0.34 0.149-0.763 0.295-1.269 0.436-0.498 0.133-1.029 0.228-1.593 0.286v-1.916c0.556-0.091 1.079-0.22 1.568-0.386 0.498-0.166 0.921-0.344 1.269-0.535 0.348-0.199 0.581-0.382 0.697-0.548h2.066z">
      </path>
      <path fill="none" stroke="#fff" style="stroke: var(--color1, #fff)" stroke-linejoin="miter" stroke-linecap="butt"
        stroke-miterlimit="4" stroke-width="1.7778" d="M35.556 16h71.111"></path>
      <path fill="#fff" style="fill: var(--color1, #fff)"
        d="M124.315 23.36c-1.004 0-1.863-0.241-2.576-0.722-0.705-0.489-1.282-1.161-1.73-2.016-0.44-0.863-0.763-1.863-0.971-2.999-0.199-1.137-0.299-2.352-0.299-3.646s0.1-2.51 0.299-3.646c0.207-1.145 0.531-2.149 0.971-3.012 0.448-0.871 1.025-1.551 1.73-2.041 0.713-0.498 1.572-0.747 2.576-0.747s1.858 0.249 2.564 0.747c0.713 0.489 1.29 1.17 1.73 2.041 0.44 0.863 0.763 1.867 0.971 3.012 0.207 1.137 0.311 2.352 0.311 3.646s-0.104 2.51-0.311 3.646c-0.207 1.137-0.531 2.136-0.971 2.999-0.44 0.855-1.016 1.527-1.73 2.016-0.705 0.481-1.56 0.722-2.564 0.722zM124.315 21.493c0.78 0 1.419-0.286 1.916-0.859 0.506-0.572 0.884-1.419 1.132-2.539s0.373-2.493 0.373-4.119c0-1.634-0.124-3.012-0.373-4.132s-0.626-1.966-1.132-2.539c-0.498-0.581-1.137-0.871-1.916-0.871-0.772 0-1.415 0.29-1.929 0.871-0.506 0.572-0.884 1.419-1.132 2.539s-0.373 2.497-0.373 4.132c0 1.634 0.124 3.012 0.373 4.132 0.249 1.112 0.626 1.954 1.132 2.526 0.514 0.572 1.157 0.859 1.929 0.859zM142.841 6.61h-7.168l-0.647 6.048c0.025-0.1 0.108-0.232 0.249-0.398 0.149-0.166 0.365-0.336 0.647-0.51 0.291-0.174 0.651-0.319 1.083-0.436s0.938-0.174 1.518-0.174c1.51 0 2.655 0.539 3.435 1.618 0.788 1.079 1.182 2.501 1.182 4.268 0 1.361-0.212 2.514-0.635 3.46-0.415 0.946-1.016 1.663-1.804 2.153-0.788 0.481-1.742 0.722-2.862 0.722-0.904 0-1.692-0.133-2.364-0.398-0.664-0.274-1.211-0.655-1.643-1.145-0.423-0.489-0.742-1.062-0.958-1.717-0.207-0.655-0.311-1.373-0.311-2.153 0-0.008 0-0.012 0-0.012 0-0.008 0-0.017 0-0.025h2.103c0 0.008 0 0.017 0 0.025 0 0 0 0.004 0 0.012 0.008 1.253 0.291 2.157 0.846 2.713 0.564 0.556 1.348 0.834 2.352 0.834 0.647 0 1.203-0.162 1.668-0.485 0.473-0.324 0.834-0.813 1.083-1.468 0.257-0.655 0.386-1.481 0.386-2.476 0-1.327-0.245-2.335-0.734-3.024-0.481-0.689-1.19-1.033-2.128-1.033-0.606 0-1.137 0.12-1.593 0.361-0.456 0.232-0.834 0.519-1.132 0.859-0.29 0.34-0.498 0.664-0.622 0.971l-2.041-0.523 1.132-9.918h8.96v1.854z">
      </path>
    </symbol>
    <symbol id="icon-carousel_right-arrow" viewBox="0 0 32 32">
      <path fill="none" stroke="#fff" style="stroke: var(--color1, #fff)" stroke-linejoin="round" stroke-linecap="round"
        stroke-miterlimit="4" stroke-width="1.3333" d="M12 24l8-8-8-8"></path>
    </symbol>
    <symbol id="icon-carousel_left-arrow" viewBox="0 0 32 32">
      <path fill="none" stroke="#fff" style="stroke: var(--color1, #fff)" stroke-linejoin="round" stroke-linecap="round"
        stroke-miterlimit="4" stroke-width="1.3333" d="M20 24l-8-8 8-8"></path>
    </symbol>
    <symbol id="icon-burger_menu-close" viewBox="0 0 32 32">
      <path fill="none" stroke="#fff" style="stroke: var(--color1, #fff)" stroke-linejoin="round" stroke-linecap="round"
        stroke-miterlimit="4" stroke-width="1.7333" d="M24 8l-16 16"></path>
      <path fill="none" stroke="#fff" style="stroke: var(--color1, #fff)" stroke-linejoin="round" stroke-linecap="round"
        stroke-miterlimit="4" stroke-width="1.7333" d="M8 8l16 16"></path>
    </symbol>
    <symbol id="icon-burger_menu-open" viewBox="0 0 32 32">
      <path fill="#fff" style="fill: var(--color1, #fff)"
        d="M2.667 7.993c0-0.733 0.595-1.327 1.327-1.327h10.68c0.352 0 0.689 0.14 0.938 0.389s0.389 0.586 0.389 0.938c0 0.352-0.14 0.689-0.389 0.938s-0.586 0.389-0.938 0.389h-10.68c-0.352 0-0.689-0.14-0.938-0.389s-0.389-0.586-0.389-0.938zM2.667 16c0-0.733 0.595-1.327 1.327-1.327h24.013c0.352 0 0.689 0.14 0.938 0.389s0.389 0.586 0.389 0.938c0 0.352-0.14 0.689-0.389 0.938s-0.586 0.389-0.938 0.389h-24.013c-0.352 0-0.689-0.14-0.938-0.389s-0.389-0.586-0.389-0.938zM3.993 22.68c-0.352 0-0.689 0.14-0.938 0.389s-0.389 0.586-0.389 0.938c0 0.352 0.14 0.689 0.389 0.938s0.586 0.389 0.938 0.389h16.013c0.352 0 0.689-0.14 0.938-0.389s0.389-0.586 0.389-0.938c0-0.352-0.14-0.689-0.389-0.938s-0.586-0.389-0.938-0.389h-16.013z">
      </path>
    </symbol>
    <symbol id="icon-logo" viewBox="0 0 32 32">
      <path
        d="M28.129 18.563l-6.748-15.457-1.471-1.020-1.725-0.549-2.334-0.628-2.74 1.177-1.826 1.020 6.9 15.457h9.944z">
      </path>
      <path d="M3.913 13.395l6.748 15.493 1.471 1.022 1.725 0.551 2.334 0.629 2.74-1.18 1.826-1.022-6.9-15.493h-9.944z">
      </path>
      <path
        d="M10.924 3.309l-10.476 15.142 10.476 0.112 7.573-15.255c0.532-1.561 2.195-0.65 2.96 0-3.271-5.993-8.385-2.497-10.533 0z">
      </path>
      <path
        d="M21.076 28.691l10.476-15.142-10.476-0.112-7.573 15.255c-0.532 1.561-2.195 0.65-2.961 0 3.271 5.993 8.385 2.497 10.533 0z">
      </path>
    </symbol>
  </defs>
</svg>